#!OML:ASF H:\MichaelJackson\Top Level 1\Subject 1\Session 1\male.ASF
:FULLY-SPECIFIED
:DEGREES
988
root -0.961608 15.6384 26.7381 -170.39 171.151 173.849
lowerback 3.85334 -2.38463 -3.67092
upperback -0.920592 -3.29675 2.48227
thorax -2.75715 -1.56406 4.82431
lowerneck -7.05457 -5.97979 -0.796047
upperneck 8.28714 -8.34375 4.10394
head 4.22703 -3.95364 1.01453
rclavicle 1.85864e-014 9.54166e-015
rhumerus -54.8371 13.7645 -84.3519
rradius 58.5744
rwrist 18.8707
rhand -37.9257 -18.4936
rfingers 7.12502
rthumb -10.9676 -408.187
lclavicle 1.85864e-014 9.54166e-015
lhumerus -52.4365 1.99644 92.1592
lradius 51.0235
lwrist 18.3612
lhand -30.2512 5.27067
lfingers 7.12502
lthumb -3.56004 35.2207
rfemur -31.161 -15.816 12.0103
rtibia 51.2316
rfoot -21.4253 -9.57272
rtoes -40.8883
lfemur -27.7971 4.21922 11.8094
ltibia 45.0637
lfoot -6.73492 29.8341
ltoes 23.4905
989
root -1.10002 15.6868 26.7412 -170.419 171.434 173.745
lowerback 4.05016 -2.31505 -3.47442
upperback -0.853169 -3.19782 2.51571
thorax -2.81733 -1.51712 4.75141
lowerneck -7.1173 -5.90718 -0.724548
upperneck 8.27243 -8.2481 4.05284
head 4.2247 -3.90586 0.989502
rclavicle 6.26172e-014 -1.11319e-014
rhumerus -54.74 13.5201 -84.3083
rradius 58.1438
rwrist 18.9768
rhand -38.0892 -18.8754
rfingers 7.12502
rthumb -11.1253 -408.56
lclavicle 6.26172e-014 -1.11319e-014
lhumerus -52.3419 1.705 92.5775
lradius 51.2026
lwrist 18.5733
lhand -30.1456 5.121
lfingers 7.12502
lthumb -3.45806 35.0727
rfemur -31.292 -15.9353 12.7653
rtibia 51.1093
rfoot -21.6042 -9.01306
rtoes -40.3295
lfemur -28.4053 4.93356 10.8543
ltibia 46.8728
lfoot -7.97633 29.6372
ltoes 23.9924
990
root -1.23267 15.7339 26.7454 -170.416 171.698 173.591
lowerback 4.19785 -2.24481 -3.2091
upperback -0.807134 -3.09169 2.57307
thorax -2.87447 -1.46734 4.66182
lowerneck -7.18387 -5.84529 -0.665652
upperneck 8.31929 -8.16478 3.96592
head 4.24444 -3.86508 0.953097
rclavicle -7.67309e-014 1.98785e-014
rhumerus -54.6737 13.2666 -84.2382
rradius 57.7243
rwrist 19.0901
rhand -38.2481 -19.1754
rfingers 7.12502
rthumb -11.2786 -408.852
lclavicle -7.67309e-014 1.98785e-014
lhumerus -52.2578 1.36743 93.0362
lradius 51.3622
lwrist 18.6777
lhand -29.9775 4.99381
lfingers 7.12502
lthumb -3.2957 34.9481
rfemur -31.4219 -16.0938 13.564
rtibia 50.9282
rfoot -21.7609 -8.41437
rtoes -39.7502
lfemur -29.0424 5.60963 9.92873
ltibia 48.6521
lfoot -9.24027 29.4069
ltoes 24.1951
991
root -1.36019 15.7795 26.7504 -170.373 171.967 173.396
lowerback 4.29348 -2.16976 -2.89601
upperback -0.782502 -2.97405 2.65125
thorax -2.92621 -1.41234 4.56389
lowerneck -7.25679 -5.79245 -0.618235
upperneck 8.40702 -8.09133 3.85079
head 4.27965 -3.83009 0.907956
rclavicle -4.13472e-014 7.15625e-015
rhumerus -54.6379 13.0164 -84.1557
rradius 57.3258
rwrist 19.1555
rhand -38.3915 -19.4031
rfingers 7.12502
rthumb -11.4169 -409.072
lclavicle -4.13472e-014 7.15625e-015
lhumerus -52.195 0.997768 93.5243
lradius 51.5125
lwrist 18.703
lhand -29.7416 4.85494
lfingers 7.12502
lthumb -3.06792 34.8126
rfemur -31.5645 -16.238 14.3974
rtibia 50.6948
rfoot -21.8922 -7.81286
rtoes -39.1541
lfemur -29.6977 6.24015 9.03179
ltibia 50.393
lfoot -10.5151 29.0922
ltoes 24.0871
992
root -1.48352 15.8239 26.7562 -170.282 172.257 173.181
lowerback 4.33609 -2.0871 -2.56901
upperback -0.777222 -2.84358 2.74139
thorax -2.96855 -1.35113 4.46742
lowerneck -7.32808 -5.74546 -0.574837
upperneck 8.5052 -8.02401 3.71975
head 4.31803 -3.79895 0.857717
rclavicle 1.99779e-014 -7.15625e-015
rhumerus -54.6306 12.7695 -84.0755
rradius 56.9546
rwrist 19.1373
rhand -38.5162 -19.5861
rfingers 7.12502
rthumb -11.5371 -409.249
lclavicle 1.99779e-014 -7.15625e-015
lhumerus -52.1661 0.609343 94.0263
lradius 51.6697
lwrist 18.6722
lhand -29.4566 4.6307
lfingers 7.12502
lthumb -2.79272 34.5922
rfemur -31.7267 -16.3241 15.2418
rtibia 50.4172
rfoot -21.9991 -7.24125
rtoes -38.5444
lfemur -30.3638 6.81156 8.14655
ltibia 52.0875
lfoot -11.7749 28.6455
ltoes 23.6739
993
root -1.60333 15.8671 26.7626 -170.147 172.569 172.964
lowerback 4.33538 -1.99757 -2.25171
upperback -0.785817 -2.70347 2.83596
thorax -3.00013 -1.28505 4.37856
lowerneck -7.3938 -5.70187 -0.529823
upperneck 8.58457 -7.96007 3.58498
head 4.34852 -3.77011 0.806111
rclavicle 2.94201e-014 1.63003e-014
rhumerus -54.6368 12.5365 -84.0093
rradius 56.6081
rwrist 19.0011
rhand -38.6065 -19.7435
rfingers 7.12502
rthumb -11.6242 -409.401
lclavicle 2.94201e-014 1.63003e-014
lhumerus -52.1736 0.212449 94.5294
lradius 51.8431
lwrist 18.609
lhand -29.0948 4.35075
lfingers 7.12502
lthumb -2.44327 34.3165
rfemur -31.903 -16.3227 16.0758
rtibia 50.1043
rfoot -22.0845 -6.73045
rtoes -37.9361
lfemur -31.0328 7.3021 7.25986
ltibia 53.729
lfoot -13.0126 28.0369
ltoes 23.007
994
root -1.72035 15.9095 26.7692 -169.965 172.901 172.753
lowerback 4.29468 -1.90516 -1.96206
upperback -0.803781 -2.5605 2.93492
thorax -3.01677 -1.21732 4.30801
lowerneck -7.45444 -5.65866 -0.487392
upperneck 8.62202 -7.89518 3.45714
head 4.36351 -3.74144 0.757997
rclavicle -5.91384e-014 -1.19271e-015
rhumerus -54.6445 12.3185 -83.9573
rradius 56.2871
rwrist 18.7486
rhand -38.6549 -19.891
rfingers 7.12502
rthumb -11.6709 -409.546
lclavicle -5.91384e-014 -1.19271e-015
lhumerus -52.2139 -0.178093 95.0293
lradius 52.037
lwrist 18.5355
lhand -28.6859 3.98512
lfingers 7.12502
lthumb -2.04835 33.955
rfemur -32.096 -16.2111 16.8879
rtibia 49.7662
rfoot -22.1499 -6.30568
rtoes -37.3351
lfemur -31.7115 7.6996 6.36323
ltibia 55.312
lfoot -14.2052 27.27
ltoes 22.1582
995
root -1.83485 15.9512 26.7758 -169.746 173.235 172.571
lowerback 4.23355 -1.81437 -1.71398
upperback -0.829379 -2.42226 3.02658
thorax -3.02714 -1.15137 4.25295
lowerneck -7.5096 -5.61507 -0.435339
upperneck 8.60855 -7.82999 3.34085
head 4.35926 -3.71274 0.712922
rclavicle 1.33186e-014 2.78299e-015
rhumerus -54.6474 12.1043 -83.9244
rradius 55.9787
rwrist 18.4081
rhand -38.6699 -20.0383
rfingers 7.12502
rthumb -11.6853 -409.692
lclavicle 1.33186e-014 2.78299e-015
lhumerus -52.2925 -0.567632 95.5152
lradius 52.2534
lwrist 18.4627
lhand -28.238 3.59288
lfingers 7.12502
lthumb -1.6158 33.5665
rfemur -32.2936 -15.997 17.6496
rtibia 49.4149
rfoot -22.2023 -5.97236
rtoes -36.7359
lfemur -32.4009 7.97683 5.43193
ltibia 56.8306
lfoot -15.3327 26.3873
ltoes 21.2492
996
root -1.94694 15.9921 26.782 -169.5 173.555 172.424
lowerback 4.16902 -1.73012 -1.5059
upperback -0.858407 -2.29552 3.10553
thorax -3.03646 -1.09059 4.20797
lowerneck -7.57342 -5.57167 -0.375186
upperneck 8.54727 -7.76611 3.24237
head 4.3402 -3.68428 0.672688
rclavicle 1.6201e-014 1.23246e-014
rhumerus -54.6361 11.8822 -83.9076
rradius 55.6762
rwrist 18.0168
rhand -38.6656 -20.1841
rfingers 7.12502
rthumb -11.6812 -409.838
lclavicle 1.6201e-014 1.23246e-014
lhumerus -52.4036 -0.958986 95.9852
lradius 52.4937
lwrist 18.409
lhand -27.7676 3.19126
lfingers 7.12502
lthumb -1.16143 33.1678
rfemur -32.4911 -15.6949 18.3487
rtibia 49.0652
rfoot -22.2431 -5.73299
rtoes -36.1446
lfemur -33.1049 8.12055 4.45568
ltibia 58.2793
lfoot -16.3795 25.4318
ltoes 20.312
997
root -2.05643 16.0318 26.7877 -169.242 173.844 172.322
lowerback 4.1149 -1.65747 -1.33505
upperback -0.885576 -2.18705 3.16715
thorax -3.04699 -1.03845 4.16753
lowerneck -7.6411 -5.53062 -0.311747
upperneck 8.43145 -7.70625 3.16699
head 4.30349 -3.65746 0.63997
rclavicle -1.70955e-014 -3.97569e-015
rhumerus -54.6092 11.6371 -83.9028
rradius 55.3748
rwrist 17.6383
rhand -38.636 -20.3306
rfingers 7.12502
rthumb -11.6526 -409.987
lclavicle -1.70955e-014 -3.97569e-015
lhumerus -52.5436 -1.35495 96.4386
lradius 52.7585
lwrist 18.3905
lhand -27.2758 2.83355
lfingers 7.12502
lthumb -0.686441 32.8122
rfemur -32.6806 -15.3384 18.9729
rtibia 48.7331
rfoot -22.2786 -5.57312
rtoes -35.5517
lfemur -33.8179 8.11876 3.42436
ltibia 59.6502
lfoot -17.3444 24.4484
ltoes 19.3621
998
root -2.16314 16.0698 26.7928 -168.979 174.094 172.27
lowerback 4.08049 -1.59568 -1.19497
upperback -0.912492 -2.09546 3.20557
thorax -3.06639 -0.994265 4.12214
lowerneck -7.7048 -5.49157 -0.243686
upperneck 8.26446 -7.65042 3.1169
head 4.24888 -3.63218 0.615457
rclavicle 4.95968e-014 -2.62396e-014
rhumerus -54.5709 11.3528 -83.9054
rradius 55.0714
rwrist 17.3139
rhand -38.6114 -20.4759
rfingers 7.12502
rthumb -11.629 -410.133
lclavicle 4.95968e-014 -2.62396e-014
lhumerus -52.7165 -1.7723 96.8809
lradius 53.051
lwrist 18.4251
lhand -26.7692 2.56217
lfingers 7.12502
lthumb -0.197161 32.5418
rfemur -32.8662 -14.9559 19.5158
rtibia 48.4347
rfoot -22.3108 -5.47677
rtoes -34.9562
lfemur -34.5377 7.97703 2.32987
ltibia 60.9341
lfoot -18.2168 23.4684
ltoes 18.394
999
root -2.26688 16.1055 26.7973 -168.721 174.303 172.264
lowerback 4.07099 -1.54581 -1.07346
upperback -0.933407 -2.02142 3.22316
thorax -3.09202 -0.958692 4.0674
lowerneck -7.78173 -5.45415 -0.176224
upperneck 8.0593 -7.59736 3.08431
head 4.18439 -3.60795 0.59683
rclavicle -1.20265e-014 2.74323e-014
rhumerus -54.518 11.0284 -83.9109
rradius 54.7646
rwrist 17.0759
rhand -38.5988 -20.6206
rfingers 7.12502
rthumb -11.6167 -410.279
lclavicle -1.20265e-014 2.74323e-014
lhumerus -52.9087 -2.20812 97.3152
lradius 53.3677
lwrist 18.5218
lhand -26.2408 2.36732
lfingers 7.12502
lthumb 0.313182 32.3468
rfemur -33.0496 -14.5742 19.9843
rtibia 48.1828
rfoot -22.3428 -5.42121
rtoes -34.3479
lfemur -35.253 7.70615 1.17919
ltibia 62.1199
lfoot -18.9963 22.4907
ltoes 17.3362
